<?xml version="1.0" encoding="utf-8"?>
<!-- Generator: Adobe Illustrator 18.1.1, SVG Export Plug-In . SVG Version: 6.00 Build 0)  -->
<!DOCTYPE svg PUBLIC "-//W3C//DTD SVG 1.1//EN" "http://www.w3.org/Graphics/SVG/1.1/DTD/svg11.dtd">
<svg version="1.1" id="_x31_0" xmlns="http://www.w3.org/2000/svg" xmlns:xlink="http://www.w3.org/1999/xlink" x="0px" y="0px"
	 viewBox="0 0 512 512" style="enable-background:new 0 0 512 512;" xml:space="preserve">
<style type="text/css">
	.st0{fill:#374149;}
</style>
<g>
	<path class="st0" d="M255.973,343.535c53.469,0,96.976-43.508,96.976-96.977V96.981C352.949,43.512,309.442,0,255.973,0
		s-96.981,43.512-96.981,96.981v149.578C158.992,300.027,202.504,343.535,255.973,343.535z M212.953,91.336
		c-6.254,0-11.289-5.039-11.289-11.293c0-6.223,5.035-11.29,11.289-11.29c6.222,0,11.289,5.066,11.289,11.29
		C224.242,86.297,219.176,91.336,212.953,91.336z M212.953,113.16c6.222,0,11.289,5.066,11.289,11.293
		c0,6.25-5.066,11.29-11.289,11.29c-6.254,0-11.289-5.039-11.289-11.29C201.664,118.226,206.7,113.16,212.953,113.16z
		 M212.953,157.598c6.222,0,11.289,5.035,11.289,11.289c0,6.227-5.066,11.294-11.289,11.294c-6.254,0-11.289-5.066-11.289-11.294
		C201.664,162.633,206.7,157.598,212.953,157.598z M299.02,91.336c-6.254,0-11.289-5.039-11.289-11.293
		c0-6.223,5.035-11.29,11.289-11.29c6.222,0,11.289,5.066,11.289,11.29C310.308,86.297,305.242,91.336,299.02,91.336z
		 M299.02,113.16c6.222,0,11.289,5.066,11.289,11.293c0,6.25-5.066,11.29-11.289,11.29c-6.254,0-11.289-5.039-11.289-11.29
		C287.731,118.226,292.766,113.16,299.02,113.16z M299.02,157.598c6.222,0,11.289,5.035,11.289,11.289
		c0,6.227-5.066,11.294-11.289,11.294c-6.254,0-11.289-5.066-11.289-11.294C287.731,162.633,292.766,157.598,299.02,157.598z
		 M318.5,225.766v25.426c0,34.485-28.043,62.531-62.527,62.531c-34.462,0-62.531-28.046-62.531-62.531v-25.449
		c20.312,3.542,41.316,5.347,62.531,5.347c20.094,0,39.976-1.675,59.281-4.855C316.332,226.066,317.426,225.942,318.5,225.766z
		 M255.973,113.16c6.222,0,11.289,5.066,11.289,11.293c0,6.25-5.066,11.29-11.289,11.29c-6.227,0-11.29-5.039-11.29-11.29
		C244.684,118.226,249.746,113.16,255.973,113.16z M255.973,157.598c6.222,0,11.289,5.035,11.289,11.289
		c0,6.227-5.066,11.294-11.289,11.294c-6.227,0-11.29-5.066-11.29-11.294C244.684,162.633,249.746,157.598,255.973,157.598z
		 M255.973,91.336c-6.227,0-11.29-5.039-11.29-11.293c0-6.223,5.062-11.29,11.29-11.29c6.222,0,11.289,5.066,11.289,11.29
		C267.262,86.297,262.196,91.336,255.973,91.336z"/>
	<path class="st0" d="M421.808,184.695c-0.023,0.008-0.046,0.016-0.066,0.027v-0.172c-12.766,5.672-26.316,10.711-40.527,15.024
		v52.254c0,35.402-14.562,69.562-39.922,93.703c-24.894,23.68-57.406,35.754-91.621,34.047
		c-66.699-3.328-118.954-58.305-118.954-125.118v-54.886c-11.871-3.606-23.152-7.821-34.031-12.383
		c-2.086-0.902-4.301-1.699-6.336-2.644v0.066c-0.05-0.024-0.11-0.043-0.16-0.063v69.91c0,85.168,64.145,155.726,147.742,164.79
		v38.086h36.078v-38.058c35.531-3.856,68.657-19.145,95.219-44.391c33.375-31.754,52.511-76.598,52.511-123.058v-47.867
		L421.808,184.695z"/>
	<rect x="209.75" y="472.012" class="st0" width="92.45" height="39.988"/>
</g>
</svg>
